HIERARCHY
ROOT Hips
{
	OFFSET 0.000000 0.000000 0.000000
	CHANNELS 6 Xposition Yposition Zposition Zrotation Xrotation Yrotation
	JOINT Spine1
	{
		OFFSET 0.000000 -0.000014 83.308411
		CHANNELS 6 Xposition Yposition Zposition Zrotation Xrotation Yrotation
		JOINT Neck
		{
			OFFSET 0.000000 -0.000011 66.416405
			CHANNELS 6 Xposition Yposition Zposition Zrotation Xrotation Yrotation
			JOINT Head
			{
				OFFSET 0.000000 -5.449087 42.230404
				CHANNELS 6 Xposition Yposition Zposition Zrotation Xrotation Yrotation
				End Site
				{
					OFFSET 0.000000 -0.000009 54.490669
				}
			}
		}
		JOINT LeftShoulder
		{
			OFFSET 10.973010 1.440363 53.627693
			CHANNELS 6 Xposition Yposition Zposition Zrotation Xrotation Yrotation
			JOINT LeftArm
			{
				OFFSET 39.154800 0.000000 0.000000
				CHANNELS 6 Xposition Yposition Zposition Zrotation Xrotation Yrotation
				JOINT LeftForeArm
				{
					OFFSET 76.776299 0.000000 0.000000
					CHANNELS 6 Xposition Yposition Zposition Zrotation Xrotation Yrotation
					JOINT LeftHand
					{
						OFFSET 71.353493 0.000000 0.000000
						CHANNELS 6 Xposition Yposition Zposition Zrotation Xrotation Yrotation
						End Site
						{
							OFFSET 40.868008 0.000000 0.000000
						}
					}
				}
			}
		}
		JOINT RightShoulder
		{
			OFFSET -10.821630 1.440363 53.627693
			CHANNELS 6 Xposition Yposition Zposition Zrotation Xrotation Yrotation
			JOINT RightArm
			{
				OFFSET -39.154800 0.000000 0.000000
				CHANNELS 6 Xposition Yposition Zposition Zrotation Xrotation Yrotation
				JOINT RightForeArm
				{
					OFFSET -76.776306 0.000000 0.000000
					CHANNELS 6 Xposition Yposition Zposition Zrotation Xrotation Yrotation
					JOINT RightHand
					{
						OFFSET -71.353516 0.000000 0.000000
						CHANNELS 6 Xposition Yposition Zposition Zrotation Xrotation Yrotation
						End Site
						{
							OFFSET -40.868008 0.000000 0.000000
						}
					}
				}
			}
		}
	}
	JOINT LeftUpLeg
	{
		OFFSET 27.245401 0.000000 0.000000
		CHANNELS 6 Xposition Yposition Zposition Zrotation Xrotation Yrotation
		JOINT LeftLeg
		{
			OFFSET 0.000000 0.000019 -114.584709
			CHANNELS 6 Xposition Yposition Zposition Zrotation Xrotation Yrotation
			JOINT LeftFoot
			{
				OFFSET 0.000000 0.000020 -120.129013
				CHANNELS 6 Xposition Yposition Zposition Zrotation Xrotation Yrotation
				JOINT LeftToeBase
				{
					OFFSET 0.000000 -40.868095 -17.709503
					CHANNELS 6 Xposition Yposition Zposition Zrotation Xrotation Yrotation
					End Site
					{
						OFFSET 0.000000 -10.898136 0.000000
					}
				}
			}
		}
	}
	JOINT RightUpLeg
	{
		OFFSET -27.245401 0.000000 0.000000
		CHANNELS 6 Xposition Yposition Zposition Zrotation Xrotation Yrotation
		JOINT RightLeg
		{
			OFFSET 0.000000 0.000019 -114.584709
			CHANNELS 6 Xposition Yposition Zposition Zrotation Xrotation Yrotation
			JOINT RightFoot
			{
				OFFSET 0.000000 0.000020 -120.129013
				CHANNELS 6 Xposition Yposition Zposition Zrotation Xrotation Yrotation
				JOINT RightToeBase
				{
					OFFSET 0.000000 -40.868095 -17.709503
					CHANNELS 6 Xposition Yposition Zposition Zrotation Xrotation Yrotation
					End Site
					{
						OFFSET 0.000000 -10.898136 0.000000
					}
				}
			}
		}
	}
}
MOTION
Frames: 4
Frame Time: 0.041667
-10.279202 -5.537772 225.294357 -1.186155 18.239518 -2.512929 0.000000 -0.000008 83.308441 -3.191313 -19.976572 -11.084092 -0.000005 -0.000007 66.416389 -3.385632 11.025957 -3.035703 0.000002 -5.449084 42.230358 -1.811209 3.037502 14.773091 10.973011 1.440368 53.627712 1.299061 -5.323668 -17.593959 39.154808 0.000005 0.000016 -9.092889 -11.757668 8.385021 76.776306 -0.000007 0.000012 1.295251 -6.608695 2.603104 71.353485 0.000012 0.000011 16.303976 -7.173941 -3.767972 -10.821633 1.440369 53.627670 -4.308944 -0.857376 13.868364 -39.154808 -0.000000 0.000055 24.214515 18.344087 -22.302844 -76.776299 0.000001 0.000061 75.983225 37.040751 37.393575 -71.353554 0.000031 0.000038 -4.512645 7.525771 33.315692 27.245401 0.000006 0.000002 17.551148 -37.090697 -13.907844 0.000007 0.000027 -114.584694 16.032018 32.301809 3.238356 -0.000003 0.000012 -120.128983 18.233740 4.095192 7.079485 0.000003 -40.868088 -17.709520 0.000001 -0.000001 -0.000002 -27.245401 0.000001 -0.000006 13.576310 -26.927138 35.877170 -0.000008 0.000029 -114.584755 -19.716074 29.727746 -13.731599 0.000022 0.000015 -120.129005 -26.746112 -2.896704 -12.670898 0.000003 -40.868099 -17.709503 -0.000001 0.000000 -0.000001 
-10.299990 -5.530593 225.303375 -1.173488 18.265442 -2.547719 0.000000 -0.000008 83.308395 -3.171650 -19.980180 -11.088222 -0.000012 -0.000007 66.416435 -3.272541 11.008020 -2.943250 -0.000003 -5.449066 42.230293 -1.715941 3.136701 14.737554 10.973001 1.440364 53.627720 1.275277 -5.385790 -17.573884 39.154812 -0.000003 -0.000009 -9.071013 -11.757670 8.368542 76.776291 0.000000 0.000001 1.296916 -6.607214 2.593600 71.353493 -0.000006 -0.000013 16.359099 -7.172864 -3.758535 -10.821638 1.440366 53.627712 -4.260799 -0.917054 13.866048 -39.154816 -0.000005 -0.000062 24.183308 18.318304 -22.285592 -76.776283 -0.000002 -0.000002 76.094933 37.035092 37.304103 -71.353554 0.000029 0.000033 -4.531448 7.531440 33.312796 27.245401 0.000007 -0.000038 17.459627 -37.083583 -13.908687 -0.000009 0.000017 -114.584686 16.104227 32.280044 3.216536 0.000002 0.000015 -120.129013 18.252523 4.122717 7.097377 0.000002 -40.868084 -17.709503 0.000000 -0.000002 -0.000000 -27.245403 0.000010 -0.000007 13.588873 -26.929925 35.915897 0.000005 0.000017 -114.584709 -19.778245 29.713167 -13.715475 0.000008 0.000026 -120.129005 -26.713068 -2.911080 -12.655448 0.000005 -40.868107 -17.709503 -0.000002 -0.000000 -0.000001 
-10.304401 -5.550326 225.311050 -1.156343 18.263578 -2.603826 0.000002 -0.000003 83.308395 -3.132455 -19.978911 -11.054700 0.000006 -0.000012 66.416420 -3.149772 11.065465 -2.760989 0.000017 -5.449077 42.230404 -1.614911 3.149467 14.590876 10.973016 1.440363 53.627739 1.245474 -5.421951 -17.591238 39.154808 -0.000002 0.000042 -9.069467 -11.749439 8.387916 76.776306 -0.000008 0.000002 1.297984 -6.583613 2.536153 71.353470 0.000002 0.000010 16.456543 -7.131032 -3.613122 -10.821630 1.440359 53.627674 -4.245973 -0.935052 13.899916 -39.154812 -0.000005 -0.000017 24.172449 18.258407 -22.311574 -76.776299 -0.000016 -0.000010 76.196989 37.010524 37.197613 -71.353531 0.000022 -0.000004 -4.548859 7.534369 33.340978 27.245399 0.000005 -0.000018 17.400361 -37.029635 -13.877149 -0.000002 0.000032 -114.584709 16.137572 32.238254 3.212857 0.000004 0.000023 -120.129005 18.298551 4.158442 7.073101 -0.000002 -40.868095 -17.709522 -0.000001 -0.000001 0.000000 -27.245394 0.000007 -0.000008 13.591983 -26.903352 35.974125 -0.000015 0.000025 -114.584694 -19.790707 29.704332 -13.728374 0.000001 0.000017 -120.129021 -26.711553 -2.930239 -12.657292 -0.000006 -40.868088 -17.709503 -0.000001 -0.000002 0.000000 
-10.330988 -5.539995 225.321106 -1.125231 18.276973 -2.627187 0.000000 -0.000006 83.308441 -3.101666 -19.969486 -11.049508 0.000000 -0.000000 66.416397 -3.045495 11.198243 -2.548591 -0.000012 -5.449086 42.230450 -1.512058 3.002835 14.459709 10.973017 1.440368 53.627716 1.170247 -5.461330 -17.537634 39.154808 0.000003 -0.000000 -9.101108 -11.758779 8.300129 76.776314 -0.000003 -0.000042 1.330539 -6.592414 2.513872 71.353531 -0.000013 0.000043 16.476604 -7.137766 -3.591209 -10.821628 1.440368 53.627728 -4.230092 -0.956410 13.949183 -39.154808 -0.000000 -0.000040 24.128895 18.197038 -22.359989 -76.776314 -0.000019 0.000010 76.210233 37.009694 37.145328 -71.353531 0.000049 0.000058 -4.486272 7.592346 33.351711 27.245403 0.000003 -0.000007 17.319995 -37.030048 -13.884124 -0.000002 0.000027 -114.584686 16.157287 32.224812 3.207881 -0.000003 0.000020 -120.128983 18.325659 4.183587 7.111613 0.000002 -40.868088 -17.709503 0.000001 -0.000002 0.000001 -27.245403 0.000003 -0.000002 13.591233 -26.890974 35.993485 -0.000004 0.000019 -114.584686 -19.832052 29.693616 -13.725929 0.000019 0.000018 -120.129013 -26.714581 -2.939701 -12.700143 0.000006 -40.868103 -17.709503 0.000002 0.000000 0.000000 
